 http://img832.imageshack.us/img832/9118/mv5bmjaxmjy2mdc5mf5bml5.jpg


General

Unique ID                                : 235745039905472878064704272894122113760 (0xB15AD7D94C93023AB5F21DED60D5BAE0)

Complete name                            : C:UsersrootDesktopEye of the Hurricane.2012.WEBRip.x264.DQ1Eye of the Hurricane.2012.WEBRip.x264.DQ1.mkv

Format                                   : Matroska

Format version                           : Version 4 / Version 2

File size                                : 1.19 GiB

Duration                                 : 1h 44mn

Overall bit rate                         : 1 624 Kbps

Encoded date                             : UTC 2010-02-22 21:41:31

Writing application                      : mkvmerge v5.9.0 ('On The Loose') built on Dec  9 2012 15:37:01

Writing library                          : libebml v1.3.0 + libmatroska v1.4.0



Video

ID                                       : 1

Format                                   : AVC

Format/Info                              : Advanced Video Codec

Format profile                           : Baseline@L3.0

Format settings, CABAC                   : No

Format settings, ReFrames                : 3 frames

Muxing mode                              : Container profile=Unknown@0.0

Codec ID                                 : V_MPEG4/ISO/AVC

Duration                                 : 1h 44mn

Bit rate                                 : 1 463 Kbps

Width                                    : 854 pixels

Height                                   : 354 pixels

Display aspect ratio                     : 2.40:1

Frame rate mode                          : Constant

Frame rate                               : 23.976 fps

Color space                              : YUV

Chroma subsampling                       : 4:2:0

Bit depth                                : 8 bits

Scan type                                : Progressive

Bits/(Pixel*Frame)                       : 0.202

Stream size                              : 1.07 GiB (90%)

Writing library                          : x264 core 102





Audio

ID                                       : 2

Format                                   : AC-3

Format/Info                              : Audio Coding 3

Mode extension                           : CM (complete main)

Format settings, Endianness              : Big

Codec ID                                 : A_AC3

Duration                                 : 1h 44mn

Bit rate mode                            : Constant

Bit rate                                 : 128 Kbps

Channel(s)                               : 2 channels

Channel positions                        : Front: L R

Sampling rate                            : 48.0 KHz

Bit depth                                : 16 bits

Compression mode                         : Lossy

Stream size                              : 96.0 MiB (8%)

Default                                  : Yes

Forced                                   : No



An Everglades community struggles to put their lives back together in the wake of a hurricane. 


 
http://www.shotpix.com/images/81068457050966874171.png 
http://www.shotpix.com/images/23871739949248649390.png 
http://www.shotpix.com/images/25267614994380581261.png